<?xml version="1.0" standalone="no"?>
<!DOCTYPE svg PUBLIC "-//W3C//DTD SVG 20010904//EN"
 "http://www.w3.org/TR/2001/REC-SVG-20010904/DTD/svg10.dtd">
<svg version="1.0" xmlns="http://www.w3.org/2000/svg"
 width="260.000000pt" height="260.000000pt" viewBox="0 0 260.000000 260.000000"
 preserveAspectRatio="xMidYMid meet">
<metadata>
Created by potrace 1.14, written by Peter Selinger 2001-2017
</metadata>
<g transform="translate(0.000000,260.000000) scale(0.100000,-0.100000)"
fill="#000000" stroke="none">
<path d="M28 2249 c-30 -30 -34 -54 -17 -93 16 -35 50 -45 152 -44 48 1 92 -3
97 -8 5 -5 11 -20 14 -34 13 -73 298 -1198 307 -1216 6 -12 21 -26 33 -32 14
-6 293 -9 780 -8 l758 1 18 22 c15 19 261 969 265 1028 3 31 -15 62 -42 74
-17 8 -299 11 -973 11 l-949 0 -10 38 c-5 20 -19 75 -31 122 -27 112 -39 138
-64 152 -13 7 -77 12 -166 13 l-145 1 -27 -27z m784 -526 c2 -38 2 -111 0
-165 l-3 -96 -109 -1 -108 0 -40 159 c-21 88 -37 162 -34 165 3 3 70 5 148 5
l143 0 3 -67z m488 -97 l0 -164 -163 0 -162 1 0 162 0 163 162 1 163 1 0 -164z
m486 0 l-1 -161 -160 0 -160 0 -1 162 -1 161 162 0 163 -1 -2 -161z m461 145
c-2 -9 -19 -79 -37 -156 -19 -77 -39 -143 -44 -147 -5 -3 -56 -6 -113 -6
l-103 1 0 163 0 164 151 -2 c133 -1 150 -3 146 -17z m-1435 -493 c2 -13 2 -87
0 -165 l-3 -142 -47 3 -47 3 -41 161 -42 162 88 0 c84 0 89 -1 92 -22z m488
-141 l0 -163 -157 2 c-87 1 -160 2 -163 3 -4 1 -5 310 -1 319 0 1 73 2 161 2
l160 0 0 -163z m488 4 c0 -112 -3 -161 -11 -164 -7 -2 -79 -3 -162 -3 l-150 1
-1 163 -1 162 162 0 163 0 0 -159z m338 142 c-3 -10 -21 -83 -41 -163 l-36
-145 -50 -1 -49 -1 0 164 0 163 91 0 c81 0 90 -2 85 -17z"/>
<path d="M730 640 c-90 -26 -170 -94 -211 -178 -19 -38 -24 -63 -24 -137 0
-80 3 -96 29 -145 33 -64 81 -111 151 -148 67 -35 195 -38 266 -6 202 92 259
351 113 513 -63 70 -138 105 -229 107 -38 1 -81 -2 -95 -6z m159 -175 c121
-71 109 -238 -21 -290 -77 -31 -161 4 -199 81 -68 141 86 287 220 209z"/>
<path d="M1860 639 c-55 -16 -141 -80 -177 -132 -139 -205 -8 -481 240 -504
160 -14 307 93 342 251 6 28 10 60 9 71 -10 148 -84 254 -209 303 -55 21 -150
26 -205 11z m165 -171 c60 -32 91 -92 82 -164 -6 -58 -31 -93 -88 -122 -70
-36 -154 -15 -203 51 -30 40 -30 143 0 184 46 63 141 86 209 51z"/>
</g>
</svg>
