<?xml version="1.0" standalone="no"?>
<!DOCTYPE svg PUBLIC "-//W3C//DTD SVG 20010904//EN"
 "http://www.w3.org/TR/2001/REC-SVG-20010904/DTD/svg10.dtd">
<svg version="1.0" xmlns="http://www.w3.org/2000/svg"
 width="75.000000pt" height="75.000000pt" viewBox="0 0 75.000000 75.000000"
 preserveAspectRatio="xMidYMid meet">
<metadata>
Created by potrace 1.14, written by Peter Selinger 2001-2017
</metadata>
<g transform="translate(0.000000,75.000000) scale(0.100000,-0.100000)"
fill="#000000" stroke="none">
<path d="M70 675 c-10 -12 -4 -44 9 -46 52 -6 56 -12 72 -104 7 -38 13 -72 14
-75 1 -3 5 -26 9 -51 8 -44 6 -48 -28 -84 -36 -36 -49 -86 -26 -100 5 -3 9
-26 8 -51 0 -37 5 -51 26 -72 57 -58 156 -18 156 63 l0 33 65 -1 c64 -1 65 -1
65 -30 0 -39 15 -64 50 -82 79 -41 162 42 123 124 -23 46 -47 51 -256 51
l-192 0 37 33 36 32 144 -2 c78 -1 150 0 158 3 9 2 47 67 85 144 55 112 67
142 57 152 -9 9 -74 13 -250 13 -228 0 -237 1 -240 20 -2 11 -8 25 -14 32 -12
15 -94 15 -108 -2z m530 -121 c0 -3 -20 -45 -45 -93 l-45 -86 -132 0 -133 0
-17 80 c-9 44 -17 86 -17 93 -1 9 44 12 194 12 107 0 195 -3 195 -6z m-356
-388 c9 -13 7 -20 -8 -31 -23 -17 -46 -4 -46 25 0 32 36 36 54 6z m300 18 c19
-7 21 -35 4 -52 -7 -7 -17 -8 -30 -1 -21 11 -23 30 -6 47 14 14 12 14 32 6z"/>
</g>
</svg>
